<?xml version="1.0" encoding="utf-8"?><!DOCTYPE svg PUBLIC "-//W3C//DTD SVG 1.1//EN" "http://www.w3.org/Graphics/SVG/1.1/DTD/svg11.dtd"><svg version="1.1" xmlns="http://www.w3.org/2000/svg" width="222" height="222" viewBox="0 0 222 222"><g transform="scale(0.867,0.867)"><rect fill="#CC0000" x="0" y="0" rx="16" ry="16" width="256" height="256" /><rect fill="#CC0000" x="9" y="9" rx="12" ry="12" width="238" height="238" /></g><g transform="translate(15,15) scale(0.094,0.094)"><g transform="translate(0,0)"><g transform="scale(1,-1) translate(0,-820)"><path stroke="none" fill="#FFFFFF" d="M84 781H337Q378 781 397 762Q416 743 416 702V662Q416 620 397 602Q378 584 337 584H84Q28 584 28 621Q28 658 84 658H297Q321 658 333 661Q345 664 345 670V688Q345 694 333 696Q322 698 297 698H84Q28 698 28 739Q28 781 84 781V781V781ZM530 744V554H878Q919 554 937 535Q956 517 956 475V-77Q956 -132 920 -132Q884 -132 884 -77V425Q884 449 872 460Q860 471 836 471H156Q132 471 121 460Q110 449 110 425V-77Q110 -132 73 -132Q36 -132 36 -77V475Q36 517 55 535Q73 554 114 554H458V744Q458 799 494 799Q530 799 530 744V744V744ZM562 702Q562 743 580 762Q599 781 641 781H898Q954 781 954 740Q954 700 898 700H667Q643 700 632 697Q621 694 621 688V668Q621 662 632 659Q643 656 667 656H902Q958 656 958 620Q958 584 902 584H641Q598 584 580 602Q562 620 562 662V702V702ZM182 361Q182 403 201 421Q219 439 261 439H725Q767 439 785 421Q804 403 804 361V326Q804 285 785 267Q767 248 725 248H530V212H765Q821 212 821 172Q821 131 765 131H530V97H725Q767 97 785 79Q804 61 804 19V-77Q804 -132 768 -132Q733 -132 733 -77V-20Q733 3 721 14Q709 25 685 25H530V-77Q530 -132 494 -132Q458 -132 458 -77V25H303Q279 25 268 14Q257 3 257 -20V-77Q257 -132 220 -132Q182 -132 182 -77V19Q182 61 201 79Q219 97 261 97H458V131H223Q165 131 165 172Q165 212 223 212H458V248H261Q219 248 201 267Q182 285 182 326V361V361ZM257 349V332Q257 327 268 324Q279 322 303 322H685Q708 322 721 324Q733 327 733 332V349Q733 353 721 355Q709 357 685 357H303Q278 357 268 355Q257 353 257 349V349V349V350V349Z" /></g></g><g transform="translate(1024,0)"><g transform="scale(1,-1) translate(0,-820)"><path stroke="none" fill="#FFFFFF" d="M36 714Q36 770 73 770Q110 770 110 714V562Q110 506 73 506Q36 506 36 562V714V714ZM329 714V572Q329 531 314 502Q298 473 265 449L148 369Q127 354 118 336Q108 318 108 294V-99Q108 -154 72 -154Q36 -154 36 -99V300Q36 341 51 370Q66 399 100 423L217 505Q237 519 247 537Q257 555 257 580V714Q257 770 293 770Q329 770 329 714V714V714ZM385 744Q385 772 423 772Q460 772 460 744V730Q460 722 471 718Q481 714 506 714H637V716Q637 763 673 763Q709 763 709 716V714H834Q858 714 870 717Q882 720 882 726V740Q882 763 921 763Q960 763 960 740V700Q960 669 941 654Q923 640 882 640H707V592H878Q919 592 937 573Q956 553 956 511V290Q956 250 937 231Q919 212 878 212H711V194Q711 179 722 172Q733 166 757 166H878Q919 166 937 148Q956 129 956 87V53Q956 11 937 -6Q919 -24 878 -24H623Q598 -24 587 -28Q576 -31 576 -38V-61Q576 -68 587 -71Q598 -75 623 -75H902Q958 -75 958 -111Q958 -147 902 -147H590Q549 -147 530 -128Q512 -110 512 -69V-30Q512 11 530 29Q548 47 590 47H836Q860 47 872 50Q884 53 884 59V79Q884 85 872 87Q861 89 836 89H715Q673 89 655 108Q637 127 637 168V212H458V-93Q458 -148 421 -148Q383 -148 383 -93V511Q383 554 402 573Q420 592 462 592H637V640H464Q422 640 404 656Q385 671 385 704V744V744ZM456 463V395H482Q502 395 512 407Q522 418 522 443V509H494Q473 509 464 498Q456 487 456 463V463V463ZM596 509V399Q596 357 577 338Q558 320 518 320H458V286H637V509H596V509ZM709 509V286H836Q860 286 872 290Q884 295 884 306V320H826Q783 320 765 338Q747 357 747 399V509H709V509ZM820 509V443Q820 418 828 407Q836 395 856 395H884V463Q884 486 874 498Q865 509 846 509H820V509ZM255 347Q255 404 293 404Q331 404 331 347V-97Q331 -152 293 -152Q255 -152 255 -97V347V347V348V347Z" /></g></g><g transform="translate(0,1024)"><g transform="scale(1,-1) translate(0,-820)"><path stroke="none" fill="#FFFFFF" d="M36 702Q36 743 55 762Q73 781 114 781H878Q919 781 937 762Q956 743 956 702V-95Q956 -150 920 -150Q884 -150 884 -95V652Q884 676 872 687Q860 698 836 698H156Q132 698 121 687Q110 676 110 652V-93Q110 -148 73 -148Q36 -148 36 -93V702V702ZM201 656H785Q843 656 843 622Q843 588 785 588H530V507H765Q806 507 825 489Q844 471 844 429V270Q844 229 825 211Q806 192 765 192H530V95Q530 55 511 36Q492 17 452 17H257Q232 17 222 11Q211 5 211 -8V-46Q211 -61 222 -68Q232 -75 257 -75H729Q753 -75 764 -68Q775 -61 775 -46V-8Q775 5 764 11Q754 17 729 17H637Q579 17 579 57Q579 97 637 97H765Q808 97 826 79Q844 61 844 19V-69Q844 -110 826 -128Q807 -147 765 -147H225Q183 -147 164 -128Q146 -110 146 -69V19Q146 61 164 79Q182 97 225 97H410Q434 97 446 109Q458 121 458 146V192H221Q179 192 160 211Q142 229 142 270V429Q142 471 160 489Q178 507 221 507H458V588H201Q143 588 143 622Q143 656 201 656V656V656ZM213 387V312Q213 287 224 276Q235 264 259 264H456V433H259Q235 433 224 422Q213 411 213 387V387V387ZM530 437V264H723Q747 264 759 276Q771 288 771 312V391Q771 414 759 426Q747 437 723 437H530V437V438V437Z" /></g></g><g transform="translate(1024,1024)"><g transform="scale(1,-1) translate(0,-820)"><path stroke="none" fill="#FFFFFF" d="M74 781H428Q483 781 483 740Q483 700 428 700H74Q18 700 18 740Q18 781 74 781V781V781ZM516 702Q516 743 534 762Q553 781 594 781H878Q919 781 937 762Q956 743 956 702V610Q956 569 937 550Q919 531 878 531H594Q553 531 534 550Q516 569 516 610V702V702ZM586 674V634Q586 620 597 614Q608 608 633 608H836Q860 608 872 614Q884 620 884 634V674Q884 687 872 692Q860 698 836 698H633Q607 698 597 692Q586 687 586 674V674V674ZM74 632H434Q489 632 489 592Q489 552 434 552H349V465Q349 425 334 406Q319 387 287 387H285V351H351Q375 351 387 363Q399 375 399 399V475Q399 532 437 532Q474 532 474 475V357Q474 316 455 297Q436 278 395 278H285V210H402Q443 210 461 192Q480 173 480 131V-69Q480 -109 461 -128Q442 -147 402 -147H114Q73 -147 55 -128Q36 -109 36 -69V131Q36 173 55 192Q73 210 114 210H213V278H114Q73 278 55 297Q36 316 36 357V481Q36 538 73 538Q110 538 110 481V399Q110 374 121 363Q132 351 156 351H213V387H211Q184 387 172 406Q160 424 160 465V552H74Q18 552 18 592Q18 632 74 632V632V632ZM235 552V507Q235 481 237 471Q239 459 245 459H265Q270 459 273 471Q275 481 275 507V552H235V552ZM516 409Q516 451 534 469Q552 487 594 487H878Q919 487 937 469Q956 451 956 409V67Q956 26 937 8Q919 -10 878 -10H834V-36Q834 -56 844 -65Q855 -75 876 -75H916Q972 -75 972 -111Q972 -147 916 -147H840Q798 -147 779 -128Q761 -110 761 -69V-10H713V-69Q713 -109 694 -128Q675 -147 635 -147H558Q501 -147 501 -111Q501 -75 558 -75H596Q617 -75 627 -65Q637 -56 637 -36V-10H594Q553 -10 534 8Q516 26 516 67V409V409ZM586 379V351H884V379Q884 398 872 406Q860 415 836 415H633Q608 415 597 406Q586 398 586 379V379V379ZM586 278V210H884V278H586V278ZM110 95V69H397V95Q397 114 386 122Q375 131 351 131H156Q131 131 121 122Q110 114 110 95V95V95ZM586 131V105Q586 86 597 78Q608 69 633 69H836Q860 69 872 78Q884 87 884 105V131H586V131ZM110 -10V-36Q110 -56 121 -65Q132 -75 156 -75H351Q374 -75 386 -65Q397 -56 397 -36V-10H110V-10V-9V-10Z" /></g></g></g></svg>